<svg width="28" height="28" viewBox="0 0 28 28" fill="none" xmlns="http://www.w3.org/2000/svg">
<path d="M10.5002 12.8333V7C10.5002 6.07174 10.8689 5.1815 11.5253 4.52513C12.1817 3.86875 13.0719 3.5 14.0002 3.5C14.9284 3.5 15.8187 3.86875 16.4751 4.52513C17.1314 5.1815 17.5002 6.07174 17.5002 7V12.8333M7.38635 9.33333H20.6152C20.9516 9.33329 21.2841 9.40601 21.5898 9.54648C21.8955 9.68696 22.1672 9.89189 22.3862 10.1472C22.6053 10.4025 22.7666 10.7022 22.859 11.0257C22.9514 11.3492 22.9728 11.6888 22.9217 12.0213L21.4575 21.532C21.3304 22.3585 20.9116 23.1122 20.2768 23.6566C19.6421 24.2011 18.8334 24.5002 17.9972 24.5H10.0032C9.16715 24.5 8.35874 24.2007 7.72425 23.6563C7.08975 23.1119 6.67109 22.3583 6.54401 21.532L5.07985 12.0213C5.02871 11.6888 5.05008 11.3492 5.1425 11.0257C5.23492 10.7022 5.3962 10.4025 5.61528 10.1472C5.83436 9.89189 6.10607 9.68696 6.41176 9.54648C6.71746 9.40601 7.04992 9.33329 7.38635 9.33333Z" stroke="#141414" stroke-width="2.33333" stroke-linecap="round" stroke-linejoin="round"/>
</svg>
